<svg width="281" height="409" viewBox="0 0 281 409" fill="none" xmlns="http://www.w3.org/2000/svg">
<g filter="url(#filter0_dddd_24_358)">
<path d="M89.305 93.5562L35 178.36C35.6572 179.562 35.8042 179.822 36.4527 181.024H87.6706C88.3278 182.234 88.4662 182.494 89.1234 183.696L37.8363 262.325C39.168 263.648 38.9086 263.389 40.2403 264.712L233.265 137.545C233.533 136.879 233.732 136.395 234 135.729L205.853 8.56207C204.34 8.29401 204.227 8.27671 202.705 8L148.945 91.9651C148.426 92.2505 148.003 92.4753 147.493 92.7607H90.7577C90.2389 93.0461 89.8151 93.2709 89.305 93.5562Z" fill="#0028FF"/>
</g>
<defs>
<filter id="filter0_dddd_24_358" x="0" y="0" width="281" height="408.712" filterUnits="userSpaceOnUse" color-interpolation-filters="sRGB">
<feFlood flood-opacity="0" result="BackgroundImageFix"/>
<feColorMatrix in="SourceAlpha" type="matrix" values="0 0 0 0 0 0 0 0 0 0 0 0 0 0 0 0 0 0 127 0" result="hardAlpha"/>
<feOffset dy="6"/>
<feGaussianBlur stdDeviation="7"/>
<feColorMatrix type="matrix" values="0 0 0 0 0 0 0 0 0 0.156863 0 0 0 0 1 0 0 0 0.1 0"/>
<feBlend mode="normal" in2="BackgroundImageFix" result="effect1_dropShadow_24_358"/>
<feColorMatrix in="SourceAlpha" type="matrix" values="0 0 0 0 0 0 0 0 0 0 0 0 0 0 0 0 0 0 127 0" result="hardAlpha"/>
<feOffset dx="1" dy="26"/>
<feGaussianBlur stdDeviation="13"/>
<feColorMatrix type="matrix" values="0 0 0 0 0 0 0 0 0 0.156863 0 0 0 0 1 0 0 0 0.09 0"/>
<feBlend mode="normal" in2="effect1_dropShadow_24_358" result="effect2_dropShadow_24_358"/>
<feColorMatrix in="SourceAlpha" type="matrix" values="0 0 0 0 0 0 0 0 0 0 0 0 0 0 0 0 0 0 127 0" result="hardAlpha"/>
<feOffset dx="3" dy="58"/>
<feGaussianBlur stdDeviation="17.5"/>
<feColorMatrix type="matrix" values="0 0 0 0 0 0 0 0 0 0.156863 0 0 0 0 1 0 0 0 0.05 0"/>
<feBlend mode="normal" in2="effect2_dropShadow_24_358" result="effect3_dropShadow_24_358"/>
<feColorMatrix in="SourceAlpha" type="matrix" values="0 0 0 0 0 0 0 0 0 0 0 0 0 0 0 0 0 0 127 0" result="hardAlpha"/>
<feOffset dx="6" dy="103"/>
<feGaussianBlur stdDeviation="20.5"/>
<feColorMatrix type="matrix" values="0 0 0 0 0 0 0 0 0 0.156863 0 0 0 0 1 0 0 0 0.01 0"/>
<feBlend mode="normal" in2="effect3_dropShadow_24_358" result="effect4_dropShadow_24_358"/>
<feBlend mode="normal" in="SourceGraphic" in2="effect4_dropShadow_24_358" result="shape"/>
</filter>
</defs>
</svg>
