<?xml version="1.0" encoding="UTF-8"?>
<svg width="312px" height="256px" viewBox="0 0 312 256" version="1.1" xmlns="http://www.w3.org/2000/svg" xmlns:xlink="http://www.w3.org/1999/xlink">
    <title>Group 4</title>
    <g id="Page-1" stroke="none" stroke-width="1" fill="none" fill-rule="evenodd">
        <g id="Group-4" fill="#0028FF" fill-rule="nonzero">
            <g id="Group" transform="translate(0.000000, 104.000000)">
                <path d="M0,91.998 L0.348,150.553 C1.0681,150.906 1.184,150.964 1.9041,151.312 L77.92,92.767 C77.62,91.892 77.625,91.911 77.326,91.036 L61.8073,91.094 L60.9954,89.596 L80.095,60.42 C80.167,60.338 80.24,60.261 80.317,60.183 L118.023,31.278 C117.728,30.403 117.733,30.418 117.433,29.543 L80.51,29.543 C80.312,29.611 80.124,29.674 79.926,29.741 L40.5863,59.652 C40.509,59.734 40.4365,59.811 40.364,59.894 L20.327,90.582 C20.0418,90.737 19.805,90.867 19.5199,91.022 L0.9666,91.022 C0.5896,91.404 0.377,91.616 0,91.993 L0,91.998 Z" id="Path"></path>
                <path d="M180.787,59.314 L180.439,0.759 C179.719,0.406 179.603,0.348 178.883,0 L102.863,58.545 C103.162,59.42 103.157,59.401 103.457,60.275 L118.975,60.217 L119.787,61.716 L100.688,90.891 L100.465,91.128 L62.7595,120.034 C63.0543,120.908 63.0495,120.894 63.3491,121.769 L100.272,121.769 C100.47,121.701 100.659,121.638 100.857,121.57 L140.196,91.66 C140.274,91.578 140.346,91.5 140.419,91.418 L160.456,60.73 C160.741,60.575 160.978,60.444 161.263,60.29 L179.816,60.29 C180.193,59.908 180.406,59.695 180.783,59.318 L180.787,59.314 Z" id="Path"></path>
                <path d="M0,91.998 L0.348,150.553 C1.0681,150.906 1.184,150.964 1.9041,151.312 L77.92,92.767 C77.62,91.892 77.625,91.911 77.326,91.036 L61.8073,91.094 L60.9954,89.596 L80.095,60.42 C80.167,60.338 80.24,60.261 80.317,60.183 L118.023,31.278 C117.728,30.403 117.733,30.418 117.433,29.543 L80.51,29.543 C80.312,29.611 80.124,29.674 79.926,29.741 L40.5863,59.652 C40.509,59.734 40.4365,59.811 40.364,59.894 L20.327,90.582 C20.0418,90.737 19.805,90.867 19.5199,91.022 L0.9666,91.022 C0.5896,91.404 0.377,91.616 0,91.993 L0,91.998 Z" id="Path"></path>
                <path d="M180.787,59.314 L180.439,0.759 C179.719,0.406 179.603,0.348 178.883,0 L102.863,58.545 C103.162,59.42 103.157,59.401 103.457,60.275 L118.975,60.217 L119.787,61.716 L100.688,90.891 L100.465,91.128 L62.7595,120.034 C63.0543,120.908 63.0495,120.894 63.3491,121.769 L100.272,121.769 C100.47,121.701 100.659,121.638 100.857,121.57 L140.196,91.66 C140.274,91.578 140.346,91.5 140.419,91.418 L160.456,60.73 C160.741,60.575 160.978,60.444 161.263,60.29 L179.816,60.29 C180.193,59.908 180.406,59.695 180.783,59.318 L180.787,59.314 Z" id="Path"></path>
            </g>
            <path d="M194.456,178.927 L194,217.442 L194.869,218.32 L246.104,218.32 L246.634,218.141 L297.996,178.771 C298.117,178.528 298.217,178.323 298.335,178.08 L298.335,99.687 L296.931,99 L194.795,178.249 C194.678,178.488 194.578,178.688 194.461,178.927 L194.456,178.927 Z" id="Path"></path>
            <path d="M233.48,0 L284.907,0 C285.211,0.55672 285.279,0.67688 285.58,1.2336 L260.98,39.6515 C261.284,40.2082 261.352,40.3284 261.653,40.8851 L310.676,40.8851 C310.925,41.6101 310.917,41.598 311.165,42.319 L210.602,119.772 C209.942,119.159 210.106,119.311 209.441,118.698 L232.723,83.0038 C232.419,82.4431 232.355,82.3229 232.05,81.7662 L181.673,81.7662 C181.368,81.2095 181.304,81.0893 181,80.5286 L232.807,0.36447 L233.48,0 Z" id="Path"></path>
        </g>
    </g>
</svg>