<?xml version="1.0" encoding="UTF-8"?>
<svg width="568px" height="485px" viewBox="0 0 568 485" version="1.1" xmlns="http://www.w3.org/2000/svg" xmlns:xlink="http://www.w3.org/1999/xlink">
    <title>banner</title>
    <g id="Page-1" stroke="none" stroke-width="1" fill="none" fill-rule="evenodd">
        <g id="banner" fill="#0028FF" fill-rule="nonzero">
            <g id="Group" transform="translate(0.000000, 207.000000)">
                <path d="M0,168.619 L0.6376,275.913 C1.9571,276.56 2.1696,276.666 3.4891,277.304 L142.779,170.027 C142.23,168.424 142.239,168.46 141.69,166.857 L113.254,166.963 L111.766,164.218 L146.764,110.757 C146.897,110.606 147.029,110.464 147.171,110.323 L216.263,57.357 C215.722,55.754 215.731,55.781 215.182,54.178 L147.525,54.178 C147.162,54.302 146.817,54.417 146.454,54.541 L74.369,109.349 C74.228,109.499 74.095,109.641 73.962,109.791 L37.2466,166.024 C36.7242,166.308 36.2902,166.547 35.7678,166.83 L1.7711,166.83 C1.0804,167.53 0.6907,167.919 0,168.61 L0,168.619 Z" id="Path"></path>
                <path d="M331.27,108.729 L330.633,1.434 C329.313,0.788 329.101,0.681 327.781,0.044 L188.483,107.321 C189.032,108.923 189.023,108.888 189.572,110.491 L218.007,110.385 L219.495,113.13 L184.497,166.591 L184.09,167.025 L114.999,219.99 C115.539,221.593 115.53,221.567 116.079,223.17 L183.736,223.17 C184.099,223.046 184.444,222.93 184.807,222.806 L256.892,167.999 C257.034,167.849 257.167,167.707 257.299,167.556 L294.015,111.323 C294.537,111.04 294.971,110.801 295.494,110.517 L329.49,110.517 C330.181,109.818 330.571,109.428 331.261,108.737 L331.27,108.729 Z" id="Path"></path>
                <path d="M0,168.619 L0.6376,275.913 C1.9571,276.56 2.1696,276.666 3.4891,277.304 L142.779,170.027 C142.23,168.424 142.239,168.46 141.69,166.857 L113.254,166.963 L111.766,164.218 L146.764,110.757 C146.897,110.606 147.029,110.464 147.171,110.323 L216.263,57.357 C215.722,55.754 215.731,55.781 215.182,54.178 L147.525,54.178 C147.162,54.302 146.817,54.417 146.454,54.541 L74.369,109.349 C74.228,109.499 74.095,109.641 73.962,109.791 L37.2466,166.024 C36.7242,166.308 36.2902,166.547 35.7678,166.83 L1.7711,166.83 C1.0804,167.53 0.6907,167.919 0,168.61 L0,168.619 Z" id="Path"></path>
                <path d="M331.27,108.729 L330.633,1.434 C329.313,0.788 329.101,0.681 327.781,0.044 L188.483,107.321 C189.032,108.923 189.023,108.888 189.572,110.491 L218.007,110.385 L219.495,113.13 L184.497,166.591 L184.09,167.025 L114.999,219.99 C115.539,221.593 115.53,221.567 116.079,223.17 L183.736,223.17 C184.099,223.046 184.444,222.93 184.807,222.806 L256.892,167.999 C257.034,167.849 257.167,167.707 257.299,167.556 L294.015,111.323 C294.537,111.04 294.971,110.801 295.494,110.517 L329.49,110.517 C330.181,109.818 330.571,109.428 331.261,108.737 L331.27,108.729 Z" id="Path"></path>
            </g>
            <path d="M377.656,176.271 L376.82,246.844 L378.413,248.453 L472.294,248.453 L473.266,248.126 L567.379,175.985 C567.602,175.539 567.785,175.164 568,174.718 L568,31.0726 L565.428,29.8143 L378.277,175.029 C378.062,175.467 377.879,175.833 377.664,176.271 L377.656,176.271 Z" id="Path"></path>
            <path d="M273.393,0 L367.626,0 C368.184,1.02013 368.309,1.2403 368.859,2.2604 L323.783,72.6564 C324.34,73.6766 324.465,73.8967 325.016,74.9169 L414.845,74.9169 C415.3,76.2452 415.286,76.2232 415.741,77.5442 L231.472,219.466 C230.261,218.344 230.562,218.622 229.344,217.5 L272.006,152.094 C271.448,151.067 271.331,150.847 270.773,149.826 L178.462,149.826 C177.905,148.806 177.787,148.586 177.229,147.559 L272.16,0.66785 L273.393,0 Z" id="Path"></path>
        </g>
    </g>
</svg>