<svg width="185" height="51" viewBox="0 0 185 51" fill="none" xmlns="http://www.w3.org/2000/svg">
<path d="M61.2 20.3C62.3467 20.3 63.3533 20.0667 64.22 19.6C65.0933 19.1333 65.7733 18.4767 66.26 17.63C66.7533 16.7833 67 15.79 67 14.65V5.6H64.56V14.59C64.56 15.3033 64.4033 15.9167 64.09 16.43C63.7833 16.9433 63.3733 17.34 62.86 17.62C62.3533 17.8933 61.8 18.03 61.2 18.03C60.62 18.03 60.0733 17.8933 59.56 17.62C59.0467 17.3467 58.63 16.9533 58.31 16.44C57.9967 15.9267 57.84 15.31 57.84 14.59V5.6L55.4 5.62V14.65C55.4 15.79 55.6433 16.7833 56.13 17.63C56.6233 18.4767 57.3067 19.1333 58.18 19.6C59.0533 20.0667 60.06 20.3 61.2 20.3ZM69.7745 20H72.2345V14.8L76.3645 20H79.5545L75.0045 14.6L79.1945 9.2H76.1845L72.2345 14.4V5.6H69.7945L69.7745 20ZM80.5563 20H82.9763V14.51C82.9763 13.8833 83.0896 13.3267 83.3163 12.84C83.5496 12.3533 83.9129 11.9767 84.4063 11.71C84.7396 11.5167 85.1129 11.4033 85.5263 11.37C85.9396 11.33 86.3096 11.3567 86.6363 11.45V9.2C86.1496 9.12667 85.6496 9.13667 85.1363 9.23C84.6229 9.31667 84.1663 9.49667 83.7663 9.77C83.5396 9.91 83.3363 10.08 83.1563 10.28C82.9763 10.4733 82.8196 10.69 82.6863 10.93V9.2H80.5563V20ZM91.3106 20.3C92.1706 20.3 92.9006 20.16 93.5006 19.88C94.1073 19.5933 94.6406 19.15 95.1006 18.55V20H97.2106V13.37C97.2106 12.9033 97.1906 12.4733 97.1506 12.08C97.1106 11.68 96.994 11.29 96.8006 10.91C96.4473 10.1967 95.904 9.68333 95.1706 9.37C94.444 9.05667 93.6006 8.9 92.6406 8.9C91.374 8.9 90.364 9.17667 89.6106 9.73C88.8573 10.2833 88.3473 11.0167 88.0806 11.93L90.2806 12.62C90.4606 12.0667 90.7773 11.6767 91.2306 11.45C91.684 11.2233 92.154 11.11 92.6406 11.11C93.374 11.11 93.914 11.26 94.2606 11.56C94.6073 11.8533 94.804 12.31 94.8506 12.93C93.904 13.07 93.024 13.2067 92.2106 13.34C91.404 13.4667 90.7173 13.6233 90.1506 13.81C89.2973 14.1033 88.674 14.52 88.2806 15.06C87.8873 15.5933 87.6906 16.2533 87.6906 17.04C87.6906 17.6333 87.8273 18.1767 88.1006 18.67C88.3806 19.1633 88.7906 19.56 89.3306 19.86C89.8706 20.1533 90.5306 20.3 91.3106 20.3ZM91.7906 18.38C91.224 18.38 90.7906 18.25 90.4906 17.99C90.1973 17.73 90.0506 17.4033 90.0506 17.01C90.0506 16.6567 90.164 16.37 90.3906 16.15C90.624 15.93 90.9473 15.7433 91.3606 15.59C91.7406 15.4633 92.1973 15.3533 92.7306 15.26C93.264 15.16 93.9606 15.0433 94.8206 14.91C94.814 15.1633 94.7973 15.4467 94.7706 15.76C94.744 16.0667 94.6806 16.3433 94.5806 16.59C94.5006 16.8367 94.344 17.1 94.1106 17.38C93.884 17.66 93.5773 17.8967 93.1906 18.09C92.804 18.2833 92.3373 18.38 91.7906 18.38ZM100.014 7.56H102.424V5.35H100.014V7.56ZM100.014 20H102.424V9.2H100.014V20ZM105.4 20H107.84V14.45C107.84 13.5767 107.963 12.9033 108.21 12.43C108.463 11.95 108.783 11.62 109.17 11.44C109.563 11.2533 109.963 11.16 110.37 11.16C110.943 11.16 111.4 11.2867 111.74 11.54C112.08 11.7867 112.33 12.1033 112.49 12.49C112.656 12.87 112.763 13.2667 112.81 13.68C112.863 14.0933 112.89 14.4667 112.89 14.8V20H115.33V13.97C115.33 13.7167 115.306 13.38 115.26 12.96C115.22 12.54 115.126 12.0967 114.98 11.63C114.833 11.1633 114.606 10.7233 114.3 10.31C113.993 9.89 113.576 9.55 113.05 9.29C112.53 9.02333 111.873 8.89 111.08 8.89C110.3 8.89 109.613 9.02667 109.02 9.3C108.433 9.56667 107.943 9.93333 107.55 10.4V9.2H105.4V20ZM118.139 7.56H120.549V5.35H118.139V7.56ZM118.139 20H120.549V9.2H118.139V20ZM126.565 20.3C127.425 20.3 128.155 20.16 128.755 19.88C129.361 19.5933 129.895 19.15 130.355 18.55V20H132.465V13.37C132.465 12.9033 132.445 12.4733 132.405 12.08C132.365 11.68 132.248 11.29 132.055 10.91C131.701 10.1967 131.158 9.68333 130.425 9.37C129.698 9.05667 128.855 8.9 127.895 8.9C126.628 8.9 125.618 9.17667 124.865 9.73C124.111 10.2833 123.601 11.0167 123.335 11.93L125.535 12.62C125.715 12.0667 126.031 11.6767 126.485 11.45C126.938 11.2233 127.408 11.11 127.895 11.11C128.628 11.11 129.168 11.26 129.515 11.56C129.861 11.8533 130.058 12.31 130.105 12.93C129.158 13.07 128.278 13.2067 127.465 13.34C126.658 13.4667 125.971 13.6233 125.405 13.81C124.551 14.1033 123.928 14.52 123.535 15.06C123.141 15.5933 122.945 16.2533 122.945 17.04C122.945 17.6333 123.081 18.1767 123.355 18.67C123.635 19.1633 124.045 19.56 124.585 19.86C125.125 20.1533 125.785 20.3 126.565 20.3ZM127.045 18.38C126.478 18.38 126.045 18.25 125.745 17.99C125.451 17.73 125.305 17.4033 125.305 17.01C125.305 16.6567 125.418 16.37 125.645 16.15C125.878 15.93 126.201 15.7433 126.615 15.59C126.995 15.4633 127.451 15.3533 127.985 15.26C128.518 15.16 129.215 15.0433 130.075 14.91C130.068 15.1633 130.051 15.4467 130.025 15.76C129.998 16.0667 129.935 16.3433 129.835 16.59C129.755 16.8367 129.598 17.1 129.365 17.38C129.138 17.66 128.831 17.8967 128.445 18.09C128.058 18.2833 127.591 18.38 127.045 18.38ZM135.048 20H137.488V14.45C137.488 13.5767 137.611 12.9033 137.858 12.43C138.111 11.95 138.431 11.62 138.818 11.44C139.211 11.2533 139.611 11.16 140.018 11.16C140.591 11.16 141.048 11.2867 141.388 11.54C141.728 11.7867 141.978 12.1033 142.138 12.49C142.305 12.87 142.411 13.2667 142.458 13.68C142.511 14.0933 142.538 14.4667 142.538 14.8V20H144.978V13.97C144.978 13.7167 144.955 13.38 144.908 12.96C144.868 12.54 144.775 12.0967 144.628 11.63C144.481 11.1633 144.255 10.7233 143.948 10.31C143.641 9.89 143.225 9.55 142.698 9.29C142.178 9.02333 141.521 8.89 140.728 8.89C139.948 8.89 139.261 9.02667 138.668 9.3C138.081 9.56667 137.591 9.93333 137.198 10.4V9.2H135.048V20ZM55.6 45H58.01V30.6H55.6V45ZM64.4655 45H66.8755V32.86H71.5355V30.6H59.8055V32.86H64.4655V45ZM75.5328 45H78.0128L78.9928 41.88H84.6728L85.6628 45H88.1428L83.6028 30.6H80.0728L75.5328 45ZM79.7028 39.63L81.8128 32.93L83.9528 39.63H79.7028ZM91.45 45H93.33L95.77 37.57L98.22 45H100.1L103.4 34.2H101.04L98.92 41.13L96.79 34.2H94.76L92.62 41.13L90.51 34.2L88.15 34.18L91.45 45ZM107.619 45.3C108.479 45.3 109.209 45.16 109.809 44.88C110.416 44.5933 110.949 44.15 111.409 43.55V45H113.519V38.37C113.519 37.9033 113.499 37.4733 113.459 37.08C113.419 36.68 113.303 36.29 113.109 35.91C112.756 35.1967 112.213 34.6833 111.479 34.37C110.753 34.0567 109.909 33.9 108.949 33.9C107.683 33.9 106.673 34.1767 105.919 34.73C105.166 35.2833 104.656 36.0167 104.389 36.93L106.589 37.62C106.769 37.0667 107.086 36.6767 107.539 36.45C107.993 36.2233 108.463 36.11 108.949 36.11C109.683 36.11 110.223 36.26 110.569 36.56C110.916 36.8533 111.113 37.31 111.159 37.93C110.213 38.07 109.333 38.2067 108.519 38.34C107.713 38.4667 107.026 38.6233 106.459 38.81C105.606 39.1033 104.983 39.52 104.589 40.06C104.196 40.5933 103.999 41.2533 103.999 42.04C103.999 42.6333 104.136 43.1767 104.409 43.67C104.689 44.1633 105.099 44.56 105.639 44.86C106.179 45.1533 106.839 45.3 107.619 45.3ZM108.099 43.38C107.533 43.38 107.099 43.25 106.799 42.99C106.506 42.73 106.359 42.4033 106.359 42.01C106.359 41.6567 106.473 41.37 106.699 41.15C106.933 40.93 107.256 40.7433 107.669 40.59C108.049 40.4633 108.506 40.3533 109.039 40.26C109.573 40.16 110.269 40.0433 111.129 39.91C111.123 40.1633 111.106 40.4467 111.079 40.76C111.053 41.0667 110.989 41.3433 110.889 41.59C110.809 41.8367 110.653 42.1 110.419 42.38C110.193 42.66 109.886 42.8967 109.499 43.09C109.113 43.2833 108.646 43.38 108.099 43.38ZM116.123 45H118.543V39.51C118.543 38.8833 118.656 38.3267 118.883 37.84C119.116 37.3533 119.479 36.9767 119.973 36.71C120.306 36.5167 120.679 36.4033 121.093 36.37C121.506 36.33 121.876 36.3567 122.203 36.45V34.2C121.716 34.1267 121.216 34.1367 120.703 34.23C120.189 34.3167 119.733 34.4967 119.333 34.77C119.106 34.91 118.903 35.08 118.723 35.28C118.543 35.4733 118.386 35.69 118.253 35.93V34.2H116.123V45ZM128.246 45.3C128.886 45.3 129.462 45.2033 129.976 45.01C130.489 44.8167 130.939 44.5467 131.326 44.2V45H133.456V30.6H131.026V34.73C130.666 34.4633 130.262 34.26 129.816 34.12C129.369 33.9733 128.876 33.9 128.336 33.9C127.316 33.9 126.429 34.1467 125.676 34.64C124.929 35.1333 124.349 35.81 123.936 36.67C123.522 37.53 123.316 38.5067 123.316 39.6C123.316 40.68 123.519 41.65 123.926 42.51C124.332 43.37 124.906 44.05 125.646 44.55C126.386 45.05 127.252 45.3 128.246 45.3ZM128.616 43.14C127.989 43.14 127.472 42.9833 127.066 42.67C126.659 42.35 126.356 41.9233 126.156 41.39C125.962 40.8567 125.866 40.26 125.866 39.6C125.866 38.9467 125.966 38.3533 126.166 37.82C126.372 37.28 126.682 36.8533 127.096 36.54C127.516 36.22 128.049 36.06 128.696 36.06C129.616 36.06 130.282 36.3867 130.696 37.04C131.116 37.6933 131.326 38.5467 131.326 39.6C131.326 40.6467 131.116 41.5 130.696 42.16C130.282 42.8133 129.589 43.14 128.616 43.14ZM140.429 45.3C141.823 45.3 142.913 44.99 143.699 44.37C144.493 43.75 144.889 42.8967 144.889 41.81C144.889 40.97 144.623 40.31 144.089 39.83C143.563 39.35 142.653 38.9433 141.359 38.61C140.519 38.3967 139.886 38.2167 139.459 38.07C139.039 37.9233 138.759 37.7767 138.619 37.63C138.479 37.4833 138.409 37.3067 138.409 37.1C138.409 36.74 138.583 36.46 138.929 36.26C139.276 36.0533 139.733 35.9633 140.299 35.99C140.886 36.0233 141.356 36.1733 141.709 36.44C142.069 36.7067 142.283 37.07 142.349 37.53L144.809 37.09C144.676 36.1167 144.199 35.3433 143.379 34.77C142.559 34.19 141.519 33.9 140.259 33.9C138.973 33.9 137.943 34.2 137.169 34.8C136.396 35.4 136.009 36.2067 136.009 37.22C136.009 38.0267 136.279 38.6633 136.819 39.13C137.366 39.5967 138.316 40.0067 139.669 40.36C140.483 40.5733 141.083 40.7533 141.469 40.9C141.863 41.04 142.119 41.1833 142.239 41.33C142.359 41.4767 142.419 41.6733 142.419 41.92C142.419 42.32 142.259 42.6367 141.939 42.87C141.619 43.0967 141.173 43.21 140.599 43.21C139.939 43.21 139.389 43.0567 138.949 42.75C138.516 42.4433 138.239 42.0233 138.119 41.49L135.659 41.87C135.839 42.9567 136.346 43.8 137.179 44.4C138.013 45 139.096 45.3 140.429 45.3Z" fill="white"/>
<path fill-rule="evenodd" clip-rule="evenodd" d="M14.2005 5.59863H0V18.7991H14.2005V5.59863ZM22.3984 5.59863H28.7987V18.7991H22.3984V5.59863ZM28.8046 18.7993H43.0051V45.2003H28.8046V18.7993Z" fill="#A21ED8"/>
</svg>
