<?xml version="1.0"?>
<svg xmlns="http://www.w3.org/2000/svg" version="1.0" width="814.96063" height="252.99213">
<g transform="translate(-687.60924,-575.81428)">
 <g transform="translate(17.716536,17.750433)">
  <path
   d="M 875.28864,793.30554 L 687.60924,793.30554 L 687.60924,575.81428 L 875.28864,575.81428 L 875.28864,793.30554 z "
   style="fill:#335290;fill-rule:evenodd;stroke:none"/>
  <path
   d="M 1072.7084,793.30554 L 887.63594,793.30554 L 887.63594,575.81428 L 1072.7084,575.81428 L 1072.7084,793.30554 z "
   style="fill:#335290;fill-rule:evenodd;stroke:none"/>
  <path
   d="M 1270.2656,793.30554 L 1085.1931,793.30554 L 1085.1931,575.81428 L 1270.2656,575.81428 L 1270.2656,793.30554 z "
   style="fill:#335290;fill-rule:evenodd;stroke:none"/>
  <path
   d="M 1467.1368,793.30554 L 1281.7895,793.30554 L 1281.7895,575.81428 L 1467.1368,575.81428 L 1467.1368,793.30554 z "
   style="fill:#335290;fill-rule:evenodd;stroke:none"/>
  <path
   d="M 1430.2866,729.82657 C 1421.2182,735.02616 1413.6182,738.75782 1407.4857,740.76086 C 1401.3532,742.76382 1395.2067,743.69673 1388.9508,743.69673 C 1379.8824,743.69673 1371.0748,741.55656 1362.5411,737.30354 C 1354.1448,733.02313 1347.4776,726.36933 1342.5387,717.42435 C 1337.7371,708.35597 1335.336,696.62598 1335.0752,681.96011 L 1384.1492,681.96011 C 1395.0833,681.96011 1406.1407,681.69943 1417.0756,680.88999 C 1422.81,680.49218 1429.478,679.69647 1436.8172,678.36567 C 1437.2154,674.22246 1437.3527,670.75149 1437.3527,667.95275 C 1437.3527,656.62065 1435.2123,646.49588 1430.9455,637.5509 C 1426.6787,628.61965 1420.0115,621.55423 1410.8197,616.35464 C 1401.6139,611.15504 1391.352,608.47985 1380.0058,608.47985 C 1370.6767,608.47985 1362.0064,610.22213 1354.0082,613.55597 C 1347.8757,615.95682 1341.7432,619.29059 1335.6107,623.55726 C 1329.4782,627.68673 1324.9366,631.41839 1321.8774,634.75215 C 1317.8713,639.15604 1314.2634,646.08425 1311.0667,655.5506 C 1307.8701,664.8934 1306.2652,675.42979 1306.2652,687.15971 C 1306.2652,702.09999 1309.3384,715.0235 1315.3336,726.23212 C 1321.3427,737.30354 1329.739,745.69977 1340.5357,751.29717 C 1351.3323,756.77118 1363.474,759.56993 1376.8092,759.56993 C 1383.6138,759.56993 1390.007,758.89769 1396.1395,757.42968 C 1402.272,755.96174 1407.7464,754.09591 1412.548,751.96948 C 1415.7446,750.62494 1420.8069,747.70273 1427.8862,743.29892 L 1432.6738,732.36463 L 1430.2866,729.82657 z M 1345.8727,631.15771 C 1352.8146,622.74782 1362.1438,618.48114 1373.7499,618.48114 C 1384.684,618.48114 1393.341,622.35001 1399.8848,630.08766 C 1406.4155,637.82531 1409.7495,649.82965 1409.7495,666.22413 C 1409.7495,667.55493 1409.7495,669.55789 1409.6121,672.09595 C 1405.2079,672.49384 1396.4143,672.75453 1382.8043,672.75453 C 1377.0839,672.75453 1366.5472,672.49384 1351.3323,672.09595 C 1343.3481,671.56093 1337.8745,671.16304 1335.0752,670.8887 C 1335.1986,652.75186 1338.8073,639.41672 1345.8727,631.15771"
   style="fill:#ffffff;fill-rule:evenodd;stroke:none"/>
  <path
   d="M 1236.2691,737.56422 L 1230.2607,747.70273 C 1223.332,751.57159 1216.39,754.23312 1209.5994,756.09895 C 1202.7941,757.82757 1195.0566,758.63701 1186.5238,758.63701 C 1165.327,758.63701 1148.3838,752.23009 1135.858,739.43005 C 1123.1817,726.63001 1116.9258,708.89099 1116.9258,686.48748 C 1116.9258,674.62035 1118.6541,664.3583 1121.9881,655.5506 C 1125.4455,646.75656 1129.5881,639.95175 1134.5271,635.28725 C 1137.8479,631.95349 1144.2543,627.5496 1153.5835,622.22654 C 1162.9266,616.88974 1169.4564,613.55597 1173.1885,611.95082 C 1179.9931,609.01487 1188.266,607.5606 1197.8552,607.5606 C 1206.9235,607.5606 1215.0591,608.47985 1222.3992,610.35934 C 1227.0641,611.55293 1231.5909,613.55597 1236.2691,616.35464 C 1235.0623,624.09237 1234.1295,630.08766 1233.594,634.09366 C 1233.0593,637.96252 1232.4004,645.28855 1231.5909,655.82494 L 1222.7973,655.82494 C 1222.1252,646.08425 1221.5897,640.08896 1220.9316,637.68811 C 1220.5335,636.22017 1219.724,634.88936 1218.2557,633.69577 C 1214.6617,630.88337 1210.1202,628.48252 1204.3998,626.49322 C 1198.7888,624.49018 1192.5321,623.42006 1185.8509,623.42006 C 1177.4546,623.42006 1170.1293,625.14867 1163.9828,628.61965 C 1157.8503,632.09062 1153.0619,637.68811 1149.7287,645.28855 C 1146.2574,652.88899 1144.6524,662.21813 1144.6524,673.42676 C 1144.6524,687.29692 1147.0528,699.69914 1151.8551,710.75682 C 1156.6567,721.96545 1163.1873,729.96378 1171.5968,735.16337 C 1179.8558,740.22576 1189.0615,742.76382 1199.3235,742.76382 C 1204.5232,742.76382 1209.4621,742.09158 1214.401,740.89799 C 1219.1885,739.56726 1225.4584,737.16641 1233.1966,733.55823 L 1236.2691,737.56422"
   style="fill:#ffffff;fill-rule:evenodd;stroke:none"/>
  <path
   d="M 928.23134,708.63031 L 937.03894,708.63031 C 937.16234,714.50221 937.43714,719.1667 937.97184,722.50047 C 938.50654,725.95778 939.30274,729.29155 940.49634,732.62531 C 941.70314,735.8356 943.56964,738.63435 946.10734,740.89799 C 948.63194,743.16171 951.30704,744.90406 954.24294,746.09758 C 957.30214,747.42838 960.23804,748.23783 963.31124,748.63564 C 966.37054,749.03353 971.03554,749.29421 977.30464,749.29421 C 987.44314,749.29421 995.83944,746.49547 1002.5074,741.0352 C 1009.0373,735.56119 1012.3713,728.23516 1012.3713,718.76889 C 1012.3713,714.50221 1011.3151,710.75682 1009.1746,707.56026 C 1007.1716,704.22642 1004.1123,701.82557 1000.2436,699.95974 C 996.37494,698.09399 987.97864,695.69306 975.17814,692.89432 C 962.36444,689.95845 954.10554,687.83194 950.23684,686.48748 C 944.63904,684.36097 940.09824,681.82291 936.76424,678.76356 C 933.43104,675.6904 930.76914,671.95882 928.90344,667.29425 C 926.90034,662.62968 925.83014,657.55356 925.83014,652.09329 C 925.83014,644.2185 927.97054,636.8924 932.23744,630.22479 C 936.50344,623.42006 943.03414,617.95986 952.10244,613.81658 C 961.17084,609.68711 971.03554,607.5606 981.70884,607.5606 C 988.23944,607.5606 995.57874,608.35638 1004.1123,610.085 C 1012.5086,611.81362 1019.3132,613.81658 1024.6363,616.35464 C 1024.3755,627.68673 1024.2382,639.29325 1024.1148,651.02324 L 1015.3072,651.02324 C 1014.7724,643.6834 1014.1136,638.75823 1013.4415,636.49451 C 1012.906,634.09366 1011.9732,632.09062 1010.7796,630.22479 C 1009.7094,628.35904 1007.8437,626.49322 1005.0452,624.35297 C 1002.3701,622.35001 998.77534,620.48418 994.50854,618.75556 C 990.10514,617.15042 984.76804,616.35464 978.51214,616.35464 C 969.56714,616.35464 962.36444,619.01617 956.90404,624.21584 C 951.56774,629.55256 948.76854,635.68507 948.76854,642.75049 C 948.76854,646.75656 949.56474,650.09033 951.16964,652.88899 C 952.77454,655.82494 954.76444,658.08866 957.43954,659.81728 C 959.97724,661.55956 963.70944,663.16478 968.37354,664.61898 L 993.30174,670.8887 C 1005.978,674.08525 1014.6351,676.89773 1019.4366,679.16137 C 1024.1148,681.56222 1027.9835,685.15667 1030.9062,689.95845 C 1033.842,694.89736 1035.173,700.75553 1035.173,707.6974 C 1035.173,721.29321 1029.5752,733.29754 1018.3804,743.43605 C 1007.1716,753.56089 992.10814,758.63701 973.31244,758.63701 C 964.64224,758.63701 953.17274,757.30621 938.76724,754.63101 C 930.76914,753.163 926.50224,752.09295 925.96754,751.43438 C 925.56944,751.16004 925.29544,750.62494 925.29544,749.96644 C 925.29544,749.29421 925.43204,748.3613 925.56944,747.30491 C 926.50224,743.03823 927.16114,738.75782 927.43514,734.62835 C 927.83324,730.4988 928.09394,721.82824 928.23134,708.63031"
   style="fill:#ffffff;fill-rule:evenodd;stroke:none"/>
  <path
   d="M 715.81624,720.49751 C 718.34004,726.76722 722.08534,732.89965 727.01114,738.89503 C 731.95004,744.90406 738.34324,749.96644 746.35544,753.83523 C 754.21624,757.82757 763.95674,759.83061 775.41224,759.83061 C 790.09164,759.83061 803.55024,756.37329 815.81524,749.29421 C 827.95684,742.366 837.42334,732.76252 844.09064,720.49751 C 850.75864,708.09529 854.22914,694.62302 854.22914,679.69647 C 854.22914,658.48648 847.69934,641.15908 834.62484,627.68673 C 821.68774,614.21447 804.75784,607.5606 784.08334,607.5606 C 762.09104,607.5606 744.07764,614.74949 730.08434,629.15475 C 715.95284,643.55993 709.01094,662.09466 709.01094,684.89607 C 709.01094,697.55889 711.27474,709.42609 715.81624,720.49751 M 748.08374,631.29492 C 755.68374,622.08933 765.68574,617.54823 777.95084,617.54823 C 786.62104,617.54823 794.61924,619.94908 801.82194,624.88807 C 809.02464,629.68977 814.88244,638.086 819.56134,649.95312 C 824.22554,661.82024 826.48934,675.82761 826.48934,692.09862 C 826.48934,711.68973 822.62064,726.23212 814.75904,735.69839 C 807.02164,745.16467 797.28114,749.82924 785.68824,749.82924 C 776.61984,749.82924 768.22354,746.76981 760.48614,740.76086 C 752.61134,734.76548 746.75274,725.29921 742.74674,712.36196 C 738.61724,699.30125 736.61424,686.48748 736.61424,673.82457 C 736.61424,654.63135 740.34634,640.34964 748.08374,631.29492"
   style="fill:#ffffff;fill-rule:evenodd;stroke:none"/>
 </g>
</g>
</svg>
